<svg version="1.1" xmlns="http://www.w3.org/2000/svg" xmlns:xlink="http://www.w3.org/1999/xlink" x="0px" y="0px" viewBox="0 0 852 225" style="enable-background:new 0 0 852 225;" xml:space="preserve">
        <style type="text/css">
            .cls-1{fill:#e3e3e3;}
            .cls-2{fill:#fff;}
            .cls-3{fill:#468bf4;}
            .cls-4{fill:#EEBB8F;}
            .cls-5{fill:#fd6979;}
            .cls-6{fill:#52d1a8;}
            .cls-7{fill:#0070e0;}
            .cls-8{fill:#37bd64;}
            .cls-9{fill:#fc3768;}
            .cls-10{fill:#4267b2;}

            #rightthumb,
            #rightmiddle,
            #rightpinky,
            #leftindex,
            #leftring {
                animation: updown .75s linear infinite;
            }

            #rightindex,
            #rightring,
            #leftthumb,
            #leftmiddle,
            #leftpinky {
                animation: updown .75s linear 0.25s forwards infinite;
            }

            @keyframes updown {
                0% {
                    transform: translateY(0)
                }
                25% {
                    transform: translateY(-3px)
                }
                75% {
                    transform: translateY(3px)
                }
                100% {
                    transform: translateY(0)
                }
            }

            /* Facebook fades in after 1s*/
            .facebook {
                -webkit-animation: slidein 0.5s 0s forwards;
                animation: slidein 0.5s 0s forwards;
                opacity: 0;
            }


            /* inVision fades in after 1.5s*/
            .invision {
                -webkit-animation: slidein 0.5s 0.15s forwards;
                animation: slidein 0.5s 0.15s forwards;
                opacity: 0;
            }


            /* evernote fades in after 2s*/
            .evernote {
                -webkit-animation: slidein 0.5s 0.3s forwards;
                animation: slidein 0.5s 0.3s forwards;
                opacity: 0;
            }


            /* dropbox fades in after 2.5s*/
            .dropbox {
                -webkit-animation: slidein 0.5s 0.45s forwards;
                animation: slidein 0.5s 0.45s forwards;
                opacity: 0;
            }

            /* slack fades in after 3s*/
            .slack {
                -webkit-animation: slidein 0.5s 0.6s forwards;
                animation: slidein 0.5s 0.6s forwards;
                opacity: 0;
            }

            /* slack fades in after 3.5s*/
            .asana {
                -webkit-animation: slidein 0.5s 0.75s forwards;
                animation: slidein 0.5s 0.75s forwards;
                opacity: 0;
            }

            @-webkit-keyframes slidein {
                from {
                    opacity: 0;
                    transform: scale(0.15);
                }
                to {
                    opacity: 1;
                    transform: scale(1);
                }
            }

            @keyframes slidein {
                from {
                    opacity: 0;
                    transform: scale(0.15);
                }
                to {
                    opacity: 1;
                    transform: scale(1);
                }
            }
        </style>
        <g id="Keyboard">
            <g id="Group">
                <path class="cls-1" d="M524.2,132.8H327.8a5,5,0,0,1-5-5V5.5a5,5,0,0,1,5-5H524.2a5,5,0,0,1,5,5V127.8A5,5,0,0,1,524.2,132.8Z" id="Shape"></path>
                <g data-name="Shape" id="Shape-2">
                    <path class="cls-2" d="M337.7,24.3A1.75,1.75,0,0,1,336,26h-6.7a1.75,1.75,0,0,1-1.7-1.7V17.6a1.75,1.75,0,0,1,1.7-1.7H336a1.75,1.75,0,0,1,1.7,1.7Z"></path>
                    <path class="cls-2" d="M351.7,24.3A1.75,1.75,0,0,1,350,26h-6.7a1.75,1.75,0,0,1-1.7-1.7V17.6a1.75,1.75,0,0,1,1.7-1.7H350a1.75,1.75,0,0,1,1.7,1.7Z"></path>
                    <path class="cls-2" d="M365.7,24.3A1.75,1.75,0,0,1,364,26h-6.7a1.75,1.75,0,0,1-1.7-1.7V17.6a1.75,1.75,0,0,1,1.7-1.7H364a1.75,1.75,0,0,1,1.7,1.7Z"></path>
                    <path class="cls-2" d="M379.7,24.3A1.75,1.75,0,0,1,378,26h-6.7a1.75,1.75,0,0,1-1.7-1.7V17.6a1.75,1.75,0,0,1,1.7-1.7H378a1.75,1.75,0,0,1,1.7,1.7Z"></path>
                    <path class="cls-2" d="M393.7,24.3A1.75,1.75,0,0,1,392,26h-6.7a1.75,1.75,0,0,1-1.7-1.7V17.6a1.75,1.75,0,0,1,1.7-1.7H392a1.75,1.75,0,0,1,1.7,1.7Z"></path>
                    <path class="cls-2" d="M407.7,24.3A1.75,1.75,0,0,1,406,26h-6.7a1.75,1.75,0,0,1-1.7-1.7V17.6a1.75,1.75,0,0,1,1.7-1.7H406a1.75,1.75,0,0,1,1.7,1.7Z"></path>
                    <path class="cls-2" d="M421.7,24.3A1.75,1.75,0,0,1,420,26h-6.7a1.75,1.75,0,0,1-1.7-1.7V17.6a1.69,1.69,0,0,1,1.7-1.7H420a1.75,1.75,0,0,1,1.7,1.7Z"></path>
                    <path class="cls-2" d="M435.7,24.3A1.75,1.75,0,0,1,434,26h-6.7a1.75,1.75,0,0,1-1.7-1.7V17.6a1.75,1.75,0,0,1,1.7-1.7H434a1.75,1.75,0,0,1,1.7,1.7Z"></path>
                    <path class="cls-2" d="M449.7,24.3A1.75,1.75,0,0,1,448,26h-6.7a1.75,1.75,0,0,1-1.7-1.7V17.6a1.75,1.75,0,0,1,1.7-1.7H448a1.75,1.75,0,0,1,1.7,1.7Z"></path>
                    <path class="cls-2" d="M463.7,24.3A1.75,1.75,0,0,1,462,26h-6.7a1.75,1.75,0,0,1-1.7-1.7V17.6a1.75,1.75,0,0,1,1.7-1.7H462a1.75,1.75,0,0,1,1.7,1.7Z"></path>
                    <path class="cls-2" d="M477.7,24.3A1.75,1.75,0,0,1,476,26h-6.7a1.75,1.75,0,0,1-1.7-1.7V17.6a1.75,1.75,0,0,1,1.7-1.7H476a1.75,1.75,0,0,1,1.7,1.7Z"></path>
                    <path class="cls-2" d="M491.7,24.3A1.75,1.75,0,0,1,490,26h-6.7a1.75,1.75,0,0,1-1.7-1.7V17.6a1.75,1.75,0,0,1,1.7-1.7H490a1.75,1.75,0,0,1,1.7,1.7Z"></path>
                    <path class="cls-2" d="M505.7,24.3A1.75,1.75,0,0,1,504,26h-6.7a1.75,1.75,0,0,1-1.7-1.7V17.6a1.75,1.75,0,0,1,1.7-1.7H504a1.75,1.75,0,0,1,1.7,1.7Z"></path>
                    <path class="cls-2" d="M524.2,23.9a2,2,0,0,1-2,2H511.3a2,2,0,0,1-2-2V18a2,2,0,0,1,2-2h10.9a2,2,0,0,1,2,2Z"></path>
                </g>
                <g data-name="Shape" id="Shape-3">
                    <path class="cls-2" d="M337.5,10.2a1.32,1.32,0,0,1-1.3,1.3h-7.4a1.32,1.32,0,0,1-1.3-1.3V6.8a1.32,1.32,0,0,1,1.3-1.3h7.4a1.32,1.32,0,0,1,1.3,1.3Z"></path>
                    <path class="cls-2" d="M351.5,10.2a1.32,1.32,0,0,1-1.3,1.3h-7.4a1.32,1.32,0,0,1-1.3-1.3V6.8a1.32,1.32,0,0,1,1.3-1.3h7.4a1.32,1.32,0,0,1,1.3,1.3Z"></path>
                    <path class="cls-2" d="M365.5,10.2a1.32,1.32,0,0,1-1.3,1.3h-7.4a1.32,1.32,0,0,1-1.3-1.3V6.8a1.32,1.32,0,0,1,1.3-1.3h7.4a1.32,1.32,0,0,1,1.3,1.3Z"></path>
                    <path class="cls-2" d="M379.5,10.2a1.32,1.32,0,0,1-1.3,1.3h-7.4a1.32,1.32,0,0,1-1.3-1.3V6.8a1.32,1.32,0,0,1,1.3-1.3h7.4a1.32,1.32,0,0,1,1.3,1.3Z"></path>
                    <path class="cls-2" d="M393.5,10.2a1.32,1.32,0,0,1-1.3,1.3h-7.4a1.32,1.32,0,0,1-1.3-1.3V6.8a1.32,1.32,0,0,1,1.3-1.3h7.4a1.32,1.32,0,0,1,1.3,1.3Z"></path>
                    <path class="cls-2" d="M407.5,10.2a1.32,1.32,0,0,1-1.3,1.3h-7.4a1.32,1.32,0,0,1-1.3-1.3V6.8a1.32,1.32,0,0,1,1.3-1.3h7.4a1.32,1.32,0,0,1,1.3,1.3Z"></path>
                    <path class="cls-2" d="M421.5,10.2a1.32,1.32,0,0,1-1.3,1.3h-7.4a1.32,1.32,0,0,1-1.3-1.3V6.8a1.32,1.32,0,0,1,1.3-1.3h7.4a1.32,1.32,0,0,1,1.3,1.3Z"></path>
                    <path class="cls-2" d="M435.5,10.2a1.32,1.32,0,0,1-1.3,1.3h-7.4a1.32,1.32,0,0,1-1.3-1.3V6.8a1.32,1.32,0,0,1,1.3-1.3h7.4a1.32,1.32,0,0,1,1.3,1.3Z"></path>
                    <path class="cls-2" d="M449.5,10.2a1.32,1.32,0,0,1-1.3,1.3h-7.4a1.32,1.32,0,0,1-1.3-1.3V6.8a1.32,1.32,0,0,1,1.3-1.3h7.4a1.32,1.32,0,0,1,1.3,1.3Z"></path>
                    <path class="cls-2" d="M463.5,10.2a1.32,1.32,0,0,1-1.3,1.3h-7.4a1.32,1.32,0,0,1-1.3-1.3V6.8a1.32,1.32,0,0,1,1.3-1.3h7.4a1.32,1.32,0,0,1,1.3,1.3Z"></path>
                    <path class="cls-2" d="M477.5,10.2a1.32,1.32,0,0,1-1.3,1.3h-7.4a1.32,1.32,0,0,1-1.3-1.3V6.8a1.32,1.32,0,0,1,1.3-1.3h7.4a1.32,1.32,0,0,1,1.3,1.3Z"></path>
                    <path class="cls-2" d="M491.5,10.2a1.32,1.32,0,0,1-1.3,1.3h-7.4a1.32,1.32,0,0,1-1.3-1.3V6.8a1.32,1.32,0,0,1,1.3-1.3h7.4a1.32,1.32,0,0,1,1.3,1.3Z"></path>
                    <path class="cls-2" d="M505.5,10.2a1.32,1.32,0,0,1-1.3,1.3h-7.4a1.32,1.32,0,0,1-1.3-1.3V6.8a1.32,1.32,0,0,1,1.3-1.3h7.4a1.32,1.32,0,0,1,1.3,1.3Z"></path>
                    <path class="cls-2" d="M524,9.9a1.58,1.58,0,0,1-1.6,1.6H510.6A1.58,1.58,0,0,1,509,9.9V7.1a1.58,1.58,0,0,1,1.6-1.6h11.8A1.58,1.58,0,0,1,524,7.1Z"></path>
                </g>
                <g data-name="Shape" id="Shape-4">
                    <path class="cls-2" d="M505.2,46.2a2.26,2.26,0,0,1,2.3-2.3h14.4a2.26,2.26,0,0,1,2.3,2.3v5.4a2.26,2.26,0,0,1-2.3,2.3H507.5a2.26,2.26,0,0,1-2.3-2.3Z"></path>
                    <path class="cls-2" d="M490.7,45.6a1.75,1.75,0,0,1,1.7-1.7h6.7a1.75,1.75,0,0,1,1.7,1.7v6.7a1.75,1.75,0,0,1-1.7,1.7h-6.7a1.75,1.75,0,0,1-1.7-1.7Z"></path>
                    <path class="cls-2" d="M476.7,45.6a1.75,1.75,0,0,1,1.7-1.7h6.7a1.75,1.75,0,0,1,1.7,1.7v6.7a1.75,1.75,0,0,1-1.7,1.7h-6.7a1.75,1.75,0,0,1-1.7-1.7Z"></path>
                    <path class="cls-2" d="M448.7,45.6a1.75,1.75,0,0,1,1.7-1.7h6.7a1.75,1.75,0,0,1,1.7,1.7v6.7a1.75,1.75,0,0,1-1.7,1.7h-6.7a1.75,1.75,0,0,1-1.7-1.7Z"></path>
                    <path class="cls-2" d="M434.7,45.6a1.75,1.75,0,0,1,1.7-1.7h6.7a1.75,1.75,0,0,1,1.7,1.7v6.7a1.75,1.75,0,0,1-1.7,1.7h-6.7a1.75,1.75,0,0,1-1.7-1.7Z"></path>
                    <path class="cls-2" d="M420.7,45.6a1.75,1.75,0,0,1,1.7-1.7h6.7a1.75,1.75,0,0,1,1.7,1.7v6.7a1.75,1.75,0,0,1-1.7,1.7h-6.7a1.75,1.75,0,0,1-1.7-1.7Z"></path>
                    <path class="cls-2" d="M406.7,45.6a1.75,1.75,0,0,1,1.7-1.7h6.7a1.75,1.75,0,0,1,1.7,1.7v6.7a1.75,1.75,0,0,1-1.7,1.7h-6.7a1.75,1.75,0,0,1-1.7-1.7Z"></path>
                    <path class="cls-2" d="M392.7,45.6a1.75,1.75,0,0,1,1.7-1.7h6.7a1.75,1.75,0,0,1,1.7,1.7v6.7a1.75,1.75,0,0,1-1.7,1.7h-6.7a1.75,1.75,0,0,1-1.7-1.7Z"></path>
                    <path class="cls-2" d="M364.7,45.6a1.75,1.75,0,0,1,1.7-1.7h6.7a1.75,1.75,0,0,1,1.7,1.7v6.7a1.75,1.75,0,0,1-1.7,1.7h-6.7a1.75,1.75,0,0,1-1.7-1.7Z"></path>
                    <path class="cls-2" d="M350.7,45.6a1.75,1.75,0,0,1,1.7-1.7h6.7a1.75,1.75,0,0,1,1.7,1.7v6.7a1.75,1.75,0,0,1-1.7,1.7h-6.7a1.75,1.75,0,0,1-1.7-1.7Z"></path>
                    <path class="cls-2" d="M327.2,46.2a2.26,2.26,0,0,1,2.3-2.3h14.4a2.26,2.26,0,0,1,2.3,2.3v5.4a2.26,2.26,0,0,1-2.3,2.3H329.5a2.26,2.26,0,0,1-2.3-2.3Z"></path>
                </g>
                <g data-name="Shape" id="Shape-5">
                    <path class="cls-2" d="M499.4,60.8a2.65,2.65,0,0,1,2.6-2.6h19.7a2.65,2.65,0,0,1,2.6,2.6v4.7a2.65,2.65,0,0,1-2.6,2.6H502a2.65,2.65,0,0,1-2.6-2.6Z"></path>
                    <path class="cls-2" d="M483.7,59.9a1.75,1.75,0,0,1,1.7-1.7h6.7a1.75,1.75,0,0,1,1.7,1.7v6.7a1.75,1.75,0,0,1-1.7,1.7h-6.7a1.75,1.75,0,0,1-1.7-1.7Z"></path>
                    <path class="cls-2" d="M469.6,59.9a1.75,1.75,0,0,1,1.7-1.7H478a1.75,1.75,0,0,1,1.7,1.7v6.7a1.75,1.75,0,0,1-1.7,1.7h-6.7a1.75,1.75,0,0,1-1.7-1.7Z"></path>
                    <path class="cls-2" d="M455.5,59.9a1.75,1.75,0,0,1,1.7-1.7h6.7a1.75,1.75,0,0,1,1.7,1.7v6.7a1.75,1.75,0,0,1-1.7,1.7h-6.7a1.75,1.75,0,0,1-1.7-1.7Z"></path>
                    <path class="cls-2" d="M441.4,59.9a1.75,1.75,0,0,1,1.7-1.7h6.7a1.75,1.75,0,0,1,1.7,1.7v6.7a1.75,1.75,0,0,1-1.7,1.7H443a1.75,1.75,0,0,1-1.7-1.7V59.9Z"></path>
                    <path class="cls-2" d="M427.3,59.9a1.75,1.75,0,0,1,1.7-1.7h6.7a1.75,1.75,0,0,1,1.7,1.7v6.7a1.75,1.75,0,0,1-1.7,1.7H429a1.75,1.75,0,0,1-1.7-1.7Z"></path>
                    <path class="cls-2" d="M413.2,59.9a1.75,1.75,0,0,1,1.7-1.7h6.7a1.75,1.75,0,0,1,1.7,1.7v6.7a1.75,1.75,0,0,1-1.7,1.7h-6.7a1.75,1.75,0,0,1-1.7-1.7Z"></path>
                    <path class="cls-2" d="M399.1,59.9a1.75,1.75,0,0,1,1.7-1.7h6.7a1.75,1.75,0,0,1,1.7,1.7v6.7a1.75,1.75,0,0,1-1.7,1.7h-6.7a1.75,1.75,0,0,1-1.7-1.7Z"></path>
                    <path class="cls-2" d="M384.9,59.9a1.75,1.75,0,0,1,1.7-1.7h6.7a1.75,1.75,0,0,1,1.7,1.7v6.7a1.75,1.75,0,0,1-1.7,1.7h-6.7a1.75,1.75,0,0,1-1.7-1.7Z"></path>
                    <path class="cls-2" d="M370.8,59.9a1.75,1.75,0,0,1,1.7-1.7h6.7a1.75,1.75,0,0,1,1.7,1.7v6.7a1.75,1.75,0,0,1-1.7,1.7h-6.7a1.75,1.75,0,0,1-1.7-1.7Z"></path>
                    <path class="cls-2" d="M356.7,59.9a1.75,1.75,0,0,1,1.7-1.7h6.7a1.75,1.75,0,0,1,1.7,1.7v6.7a1.75,1.75,0,0,1-1.7,1.7h-6.7a1.75,1.75,0,0,1-1.7-1.7Z"></path>
                    <path class="cls-2" d="M327.4,60.8a2.65,2.65,0,0,1,2.6-2.6h19.7a2.65,2.65,0,0,1,2.6,2.6v4.7a2.65,2.65,0,0,1-2.6,2.6H330a2.65,2.65,0,0,1-2.6-2.6Z"></path>
                </g>
                <g data-name="Shape" id="Shape-6">
                    <path class="cls-2" d="M382.1,74.9a2,2,0,0,1,2-2h79.7a2,2,0,0,1,2,2v5.9a2,2,0,0,1-2,2H384.1a2,2,0,0,1-2-2V74.9Z"></path>
                    <path class="cls-2" d="M367,74.7a1.9,1.9,0,0,1,1.9-1.9h8.8a1.9,1.9,0,0,1,1.9,1.9V81a1.9,1.9,0,0,1-1.9,1.9h-8.8A1.9,1.9,0,0,1,367,81Z"></path>
                    <path class="cls-2" d="M352.5,74.3a1.54,1.54,0,0,1,1.5-1.5h5a1.54,1.54,0,0,1,1.5,1.5v7a1.54,1.54,0,0,1-1.5,1.5h-5a1.54,1.54,0,0,1-1.5-1.5Z"></path>
                    <path class="cls-2" d="M339.7,74.3a1.54,1.54,0,0,1,1.5-1.5h5a1.54,1.54,0,0,1,1.5,1.5v7a1.54,1.54,0,0,1-1.5,1.5h-5a1.54,1.54,0,0,1-1.5-1.5Z"></path>
                    <path class="cls-2" d="M327.5,74.3a1.54,1.54,0,0,1,1.5-1.5h5a1.54,1.54,0,0,1,1.5,1.5v7a1.54,1.54,0,0,1-1.5,1.5h-5a1.54,1.54,0,0,1-1.5-1.5Z"></path>
                    <path class="cls-2" d="M482.7,74.7a1.9,1.9,0,0,0-1.9-1.9H472a1.9,1.9,0,0,0-1.9,1.9V81a1.9,1.9,0,0,0,1.9,1.9h8.8a1.9,1.9,0,0,0,1.9-1.9Z"></path>
                    <path class="cls-2" d="M499.2,74.3a1.54,1.54,0,0,0-1.5-1.5h-5a1.54,1.54,0,0,0-1.5,1.5v7a1.54,1.54,0,0,0,1.5,1.5h5a1.54,1.54,0,0,0,1.5-1.5Z"></path>
                    <path class="cls-2" d="M523.2,74.3a1.54,1.54,0,0,0-1.5-1.5h-5a1.54,1.54,0,0,0-1.5,1.5v7a1.54,1.54,0,0,0,1.5,1.5h5a1.54,1.54,0,0,0,1.5-1.5Z"></path>
                    <path class="cls-2" d="M511.5,74.3a1.54,1.54,0,0,0-1.5-1.5h-5a1.54,1.54,0,0,0-1.5,1.5v7a1.54,1.54,0,0,0,1.5,1.5h5a1.54,1.54,0,0,0,1.5-1.5Z"></path>
                </g>
                <g data-name="Shape" id="Shape-7">
                    <path class="cls-2" d="M514.2,38.3a1.75,1.75,0,0,0,1.7,1.7h6.7a1.75,1.75,0,0,0,1.7-1.7V31.6a1.75,1.75,0,0,0-1.7-1.7h-6.7a1.75,1.75,0,0,0-1.7,1.7Z"></path>
                    <path class="cls-2" d="M500.2,38.3a1.75,1.75,0,0,0,1.7,1.7h6.7a1.75,1.75,0,0,0,1.7-1.7V31.6a1.75,1.75,0,0,0-1.7-1.7h-6.7a1.75,1.75,0,0,0-1.7,1.7Z"></path>
                    <path class="cls-2" d="M486.2,38.3a1.75,1.75,0,0,0,1.7,1.7h6.7a1.75,1.75,0,0,0,1.7-1.7V31.6a1.75,1.75,0,0,0-1.7-1.7h-6.7a1.75,1.75,0,0,0-1.7,1.7Z"></path>
                    <path class="cls-2" d="M472.2,38.3a1.75,1.75,0,0,0,1.7,1.7h6.7a1.75,1.75,0,0,0,1.7-1.7V31.6a1.75,1.75,0,0,0-1.7-1.7h-6.7a1.75,1.75,0,0,0-1.7,1.7Z"></path>
                    <path class="cls-2" d="M458.2,38.3a1.75,1.75,0,0,0,1.7,1.7h6.7a1.75,1.75,0,0,0,1.7-1.7V31.6a1.75,1.75,0,0,0-1.7-1.7h-6.7a1.75,1.75,0,0,0-1.7,1.7Z"></path>
                    <path class="cls-2" d="M444.2,38.3a1.75,1.75,0,0,0,1.7,1.7h6.7a1.75,1.75,0,0,0,1.7-1.7V31.6a1.75,1.75,0,0,0-1.7-1.7h-6.7a1.75,1.75,0,0,0-1.7,1.7Z"></path>
                    <path class="cls-2" d="M430.2,38.3a1.75,1.75,0,0,0,1.7,1.7h6.7a1.75,1.75,0,0,0,1.7-1.7V31.6a1.75,1.75,0,0,0-1.7-1.7h-6.7a1.75,1.75,0,0,0-1.7,1.7Z"></path>
                    <path class="cls-2" d="M416.2,38.3a1.75,1.75,0,0,0,1.7,1.7h6.7a1.75,1.75,0,0,0,1.7-1.7V31.6a1.75,1.75,0,0,0-1.7-1.7h-6.7a1.75,1.75,0,0,0-1.7,1.7Z"></path>
                    <path class="cls-2" d="M402.2,38.3a1.75,1.75,0,0,0,1.7,1.7h6.7a1.75,1.75,0,0,0,1.7-1.7V31.6a1.75,1.75,0,0,0-1.7-1.7h-6.7a1.75,1.75,0,0,0-1.7,1.7Z"></path>
                    <path class="cls-2" d="M388.2,38.3a1.75,1.75,0,0,0,1.7,1.7h6.7a1.75,1.75,0,0,0,1.7-1.7V31.6a1.75,1.75,0,0,0-1.7-1.7h-6.7a1.75,1.75,0,0,0-1.7,1.7Z"></path>
                    <path class="cls-2" d="M374.2,38.3a1.75,1.75,0,0,0,1.7,1.7h6.7a1.75,1.75,0,0,0,1.7-1.7V31.6a1.75,1.75,0,0,0-1.7-1.7h-6.7a1.75,1.75,0,0,0-1.7,1.7Z"></path>
                    <path class="cls-2" d="M360.2,38.3a1.75,1.75,0,0,0,1.7,1.7h6.7a1.75,1.75,0,0,0,1.7-1.7V31.6a1.75,1.75,0,0,0-1.7-1.7h-6.7a1.75,1.75,0,0,0-1.7,1.7Z"></path>
                    <path class="cls-2" d="M346.2,38.3a1.75,1.75,0,0,0,1.7,1.7h6.7a1.75,1.75,0,0,0,1.7-1.7V31.6a1.75,1.75,0,0,0-1.7-1.7h-6.7a1.75,1.75,0,0,0-1.7,1.7Z"></path>
                    <path class="cls-2" d="M327.7,37.9a2,2,0,0,0,2,2h10.9a2,2,0,0,0,2-2V32a2,2,0,0,0-2-2H329.7a2,2,0,0,0-2,2Z"></path>
                </g>
                <path class="cls-2" d="M461.2,126.2H386.6a5,5,0,0,1-5-5V95a5,5,0,0,1,5-5h74.6a5,5,0,0,1,5,5v26.2A5,5,0,0,1,461.2,126.2Z" data-name="Shape" id="Shape-8"></path>
            </g>
        </g>
        <g id="arms">
            <rect class="cls-3" height="80" id="Rectangle-path" width="40" x="357.8" y="145"></rect>
            <rect class="cls-3" data-name="Rectangle-path" height="80" id="Rectangle-path-2" width="40" x="453.4" y="145"></rect>
            <rect class="cls-4" data-name="Rectangle-path" height="40" id="Rectangle-path-3" width="30" x="362.6" y="105"></rect>
            <rect class="cls-4" data-name="Rectangle-path" height="40" id="Rectangle-path-4" width="30" x="458.4" y="105"></rect>
            <g id="lefthand">
                <g data-name="Group" id="Group-2">
                    <path class="cls-4" d="M380.2,136.2h-6.5c-3.1,0-22.9-17.7-22.9-25.3V91.3a5.59,5.59,0,0,1,5.6-5.6h40a5.59,5.59,0,0,1,5.6,5.6l1,25.2C403.2,118.3,385.7,136.2,380.2,136.2Z" data-name="Shape" id="Shape-9"></path>
                    <path class="cls-4" d="M394.5,116.6h0a5.25,5.25,0,0,1,0-7.5L406.6,97a5.25,5.25,0,0,1,7.5,0h0c2.1,2.1,2.1,5.5,0,8.7l-11,11C401.1,117.5,396.5,118.7,394.5,116.6Z" data-name="Shape" id="Shape-10"></path>
                </g>
            </g>
            <g id="righthand">
                <g data-name="Group" id="Group-3">
                    <path class="cls-4" d="M471.1,136.8h6.5c3.1,0,22.9-17.7,22.9-25.3V91.9a5.59,5.59,0,0,0-5.6-5.6h-40a5.59,5.59,0,0,0-5.6,5.6l-1,25.2C448.1,118.9,465.6,136.8,471.1,136.8Z" data-name="Shape" id="Shape-11"></path>
                    <path class="cls-4" d="M456.8,117.2h0a5.25,5.25,0,0,0,0-7.5L444.7,97.6a5.25,5.25,0,0,0-7.5,0h0c-2.1,2.1-2.1,5.5,0,8.7l11,11C450.2,118.1,454.7,119.2,456.8,117.2Z" data-name="Shape" id="Shape-12"></path>
                </g>
            </g>
        </g>
        <g id="leftpinky">
            <path class="cls-4" d="M356.8,107h-1.2a4.78,4.78,0,0,1-4.8-4.7V72a4.72,4.72,0,0,1,4.8-4.7h1.2a4.78,4.78,0,0,1,4.8,4.7v30.3A4.85,4.85,0,0,1,356.8,107Z" data-name="Shape" id="Shape-13"></path>
        </g>
        <g id="leftring">
            <path class="cls-4" d="M370.3,104h-1.2a4.69,4.69,0,0,1-4.7-4.7V58.4a4.72,4.72,0,0,1,4.8-4.7h1.2a4.78,4.78,0,0,1,4.8,4.7V99.3A4.94,4.94,0,0,1,370.3,104Z" data-name="Shape" id="Shape-14"></path>
        </g>
        <g id="leftmiddle">
            <path class="cls-4" d="M383.9,104h-1.2a4.78,4.78,0,0,1-4.8-4.7V46.8a4.72,4.72,0,0,1,4.8-4.7h1.2a4.78,4.78,0,0,1,4.8,4.7V99.3A4.85,4.85,0,0,1,383.9,104Z" data-name="Shape" id="Shape-15"></path>
        </g>
        <g id="leftindex">
            <path class="cls-4" d="M397.4,104h-1.2a4.69,4.69,0,0,1-4.7-4.7V54.8a4.69,4.69,0,0,1,4.7-4.7h1.2a4.78,4.78,0,0,1,4.8,4.7V99.3A4.85,4.85,0,0,1,397.4,104Z" data-name="Shape" id="Shape-16"></path>
        </g>
        <g id="leftthumb">
            <path class="cls-4" d="M410.4,106.3a5.34,5.34,0,0,1-5.3-5.3V88.1c0-2.9,6-12.6,9.8-8.7,2.1,2.1.8,5.8.8,8.7V101A5.34,5.34,0,0,1,410.4,106.3Z" data-name="leftthumb" id="leftthumb-2"></path>
        </g>
        <g id="rightthumb">
            <path class="cls-4" d="M440.9,106.9a5.34,5.34,0,0,0,5.3-5.3V88.7c0-2.9-6-12.6-9.8-8.7-2.1,2.1-.8,5.8-.8,8.7v12.9A5.21,5.21,0,0,0,440.9,106.9Z" data-name="Shape" id="Shape-17"></path>
        </g>
        <g id="rightindex">
            <path class="cls-4" d="M453.9,104.6h1.2a4.8,4.8,0,0,0,4.8-4.8V55.4a4.72,4.72,0,0,0-4.8-4.7h-1.2a4.78,4.78,0,0,0-4.8,4.7V99.9A4.72,4.72,0,0,0,453.9,104.6Z" data-name="Shape" id="Shape-18"></path>
        </g>
        <g id="rightmiddle">
            <path class="cls-4" d="M467.4,104.6h1.2a4.8,4.8,0,0,0,4.8-4.8V47.3a4.72,4.72,0,0,0-4.8-4.7h-1.2a4.78,4.78,0,0,0-4.8,4.7V99.8A4.8,4.8,0,0,0,467.4,104.6Z" data-name="Shape" id="Shape-19"></path>
        </g>
        <g id="rightring">
            <path class="cls-4" d="M480.9,104.6h1.2a4.78,4.78,0,0,0,4.8-4.7V59a4.8,4.8,0,0,0-4.8-4.8h-1.2a4.8,4.8,0,0,0-4.8,4.8V99.9A4.85,4.85,0,0,0,480.9,104.6Z" data-name="Shape" id="Shape-20"></path>
        </g>
        <g id="rightpinky">
            <path class="cls-4" d="M494.5,107.6h1.2a4.78,4.78,0,0,0,4.8-4.7V72.6a4.72,4.72,0,0,0-4.8-4.7h-1.2a4.78,4.78,0,0,0-4.8,4.7v30.3A4.78,4.78,0,0,0,494.5,107.6Z" data-name="Shape" id="Shape-21"></path>
        </g>
        <g class="asana">
            <rect class="cls-5" height="64" id="Rectangle-7" rx="2.78" ry="2.78" width="64" x="788" y="62"></rect>
            <path class="cls-2" d="M829.74,95.39a8.35,8.35,0,1,1-8.35,8.35A8.35,8.35,0,0,1,829.74,95.39Zm-19.48,0a8.35,8.35,0,1,1-8.35,8.35A8.35,8.35,0,0,1,810.26,95.39Zm18.09-11.13A8.35,8.35,0,1,1,820,75.91a8.35,8.35,0,0,1,8.35,8.35Z" data-name="Shape" id="Shape-22"></path>
        </g>

        <g class="slack">
            <rect class="cls-6" data-name="Rectangle-7" height="64" id="Rectangle-7-2" rx="2.78" ry="2.78" width="64" x="684"></rect>
            <g data-name="Group" id="Group-4">
                <rect class="cls-2" data-name="Rectangle-path" height="4.59" id="Rectangle-path-5" transform="translate(26.93 229.05) rotate(-18.52)" width="4.73" x="713.61" y="29.64"></rect>
                <path class="cls-2" d="M731.3,27.41c-3.48-11.41-8.49-14.19-19.9-10.71s-14.19,8.49-10.71,19.9S709,50.78,720.59,47.3,734.78,38.82,731.3,27.41Zm-5.84,7.51-2.23.7.7,2.23a1.71,1.71,0,0,1-1.11,2.23c-.14,0-.42.14-.56.14a1.51,1.51,0,0,1-1.53-1.11l-.7-2.23-4.45,1.53.7,2.23a1.71,1.71,0,0,1-1.11,2.23c-.14,0-.42.14-.56.14a1.51,1.51,0,0,1-1.53-1.11l-.7-2.23-2.23.7c-.14,0-.42.14-.56.14a1.51,1.51,0,0,1-1.53-1.11c-.42-1.39,0-2.37,1-2.64l2.23-.7-1.39-4.31-2.23.7c-.14,0-.42.14-.56.14a1.51,1.51,0,0,1-1.53-1.11,1.71,1.71,0,0,1,1.11-2.23l2.23-.7-1-2.37A1.82,1.82,0,0,1,709,23.93,2,2,0,0,1,711.27,25l.7,2.23,4.45-1.53-.7-2.09a1.76,1.76,0,0,1,3.34-1.11l.7,2.23,2.23-.7a1.55,1.55,0,0,1,2.09,1A1.71,1.71,0,0,1,723,27.27l-2.23.7,1.39,4.31,2.23-.7a1.71,1.71,0,0,1,2.23,1.11A1.82,1.82,0,0,1,725.46,34.92Z" data-name="Shape" id="Shape-23"></path>
            </g>
        </g>

        <g class="dropbox">
            <rect class="cls-7" data-name="Rectangle-7" height="64" id="Rectangle-7-3" rx="2.78" ry="2.78" width="64" x="580" y="62"></rect>
            <g data-name="Shape" id="Shape-24">
                <polygon class="cls-2" points="604.55 77.18 593.91 84.13 601.27 90.02 612 83.39 604.55 77.18"></polygon>
                <polygon class="cls-2" points="593.91 95.91 604.55 102.86 612 96.64 601.27 90.02 593.91 95.91"></polygon>
                <polygon class="cls-2" points="612 96.64 619.45 102.86 630.09 95.91 622.73 90.02 612 96.64"></polygon>
                <polygon class="cls-2" points="630.09 84.13 619.45 77.18 612 83.39 622.73 90.02 630.09 84.13"></polygon>
                <polygon class="cls-2" points="612.02 97.98 604.55 104.18 601.36 102.09 601.36 104.43 612.02 110.82 622.68 104.43 622.68 102.09 619.49 104.18 612.02 97.98"></polygon>
            </g>
        </g>
        <g class="evernote">
            <rect class="cls-8" data-name="Rectangle-7" height="64" id="Rectangle-7-4" rx="2.78" ry="2.78" width="64" x="208" y="67"></rect>
            <g data-name="Shape" id="Shape-25">
                <path class="cls-2" d="M227.61,89H231a.31.31,0,0,0,.29-.29V85.11h0a2.9,2.9,0,0,1,.44-1.59l.15-.14h0l-6.56,6.22h0a.51.51,0,0,0,.29-.14A4.26,4.26,0,0,1,227.61,89Zm25.51-.58a2.7,2.7,0,0,0-1.89-2.32,31,31,0,0,0-4.52-.87c-1.6-.14-3.64-.14-4.81-.14a2.86,2.86,0,0,0-1.6-2.17c-1.89-.87-5.1-.58-5.83-.43a3.72,3.72,0,0,0-1.75,1.16,2.43,2.43,0,0,0-.44,1.45v3.47a1.3,1.3,0,0,1-1.31,1.3h-3.21a4.53,4.53,0,0,0-1.6.29,6.33,6.33,0,0,0-1,.87,3.21,3.21,0,0,0-.44,2,15.66,15.66,0,0,0,.15,1.74c.15.87,1.17,7.23,2,9.12a2.55,2.55,0,0,0,1.31,1.45A29.35,29.35,0,0,0,235,107c1.75.14,2.77.72,3.35-.72a4.64,4.64,0,0,0,.29-.87,12,12,0,0,0,.58-4.2c0-.14.15-.14.15,0,0,.72-.15,3.47,1.89,4.05a19,19,0,0,0,4.08.72c1.46.14,2.62.72,2.62,4.63,0,2.32-.44,2.75-3.06,2.75-2,0-2.92,0-2.92-1.59,0-1.3,1.31-1.16,2.33-1.16.44,0,.15-.29.15-1.16s.58-1.3,0-1.3c-3.5-.14-5.39,0-5.39,4.2,0,3.91,1.46,4.63,6.41,4.63,3.79,0,5.25-.14,6.7-4.92a48.53,48.53,0,0,0,1.46-8.83C254.14,100.16,253.56,90.75,253.12,88.44Zm-6.7,10.42a4.06,4.06,0,0,0-1.31.14c.15-1,.58-2.17,1.89-2,1.6,0,1.75,1.45,1.75,2.46A4,4,0,0,0,246.41,98.86Z"></path>
            </g>
        </g>
        <g class="invision">
            <rect class="cls-9" height="64" id="Combined-Shape" rx="2.78" ry="2.78" width="64" x="104"></rect>
            <path class="cls-2" d="M147.77,47.3c-3.3,0-4.88-2-4.88-4.63a8.45,8.45,0,0,1,.33-2.39l1.58-5.63a5.72,5.72,0,0,0,.24-1.72A2.68,2.68,0,0,0,142.17,30c-2.25,0-3.73,1.57-4.5,4.67l-3.06,12.22h-5.36l1-3.81c-1.58,2.58-3.76,4.2-6.46,4.2-3.25,0-4.79-1.86-4.79-4.68a10.71,10.71,0,0,1,.29-2.37l2.44-9.92h-3.78l1.15-4.24h9.09l-3.59,14.19a8.92,8.92,0,0,0-.33,2.18c0,.91.45,1.17,1.15,1.33.43.1,3.83.05,5.68-4.06l2.36-9.4h-3.83l1.15-4.24h8.18l-1.05,4.78c1.44-2.67,4.31-5.22,7.13-5.22,3,0,5.5,2.14,5.5,6.25a12.06,12.06,0,0,1-.53,3.48l-1.53,5.49a6.33,6.33,0,0,0-.24,1.48c0,1,.38,1.43,1.1,1.43s1.63-.53,2.68-3.44l2.11.81C152.84,45.49,150.59,47.3,147.77,47.3ZM126,16.7a3.2,3.2,0,1,1-3.25,3.2A3.21,3.21,0,0,1,126,16.7Z" data-name="Shape" id="Shape-26"></path>
        </g>
        <g class="facebook">
            <rect class="cls-10" data-name="Rectangle-7" height="64" id="Rectangle-7-5" rx="2.78" ry="2.78" width="64" y="67"></rect>
            <g data-name="Shape" id="Shape-27">
                <path class="cls-2" d="M47.07,80.91H16.93a3,3,0,0,0-3,3v30.14a3,3,0,0,0,3,3H33.51V103.52H29v-6h4.52v-3.9c0-4.67,2.85-7.22,7-7.22a38.67,38.67,0,0,1,4.21.22v4.88H41.85c-2.27,0-2.71,1.08-2.71,2.66v3.36h6.69l-1.51,6H39.15v13.57h7.93a3,3,0,0,0,3-3V83.93A3,3,0,0,0,47.07,80.91Z"></path>
            </g>
        </g>
    </svg>